<?xml version="1.0" encoding="UTF-8"?>
<svg xmlns="http://www.w3.org/2000/svg" xmlns:xlink="http://www.w3.org/1999/xlink" width="64pt" height="64pt" viewBox="0 0 64 64" version="1.1">
<g id="surface1">
<path style=" stroke:none;fill-rule:evenodd;fill:rgb(5.098039%,31.764706%,74.117647%);fill-opacity:1;" d="M 36.53125 10.980469 C 33.71875 11.660156 32.316406 15.152344 33.976562 17.332031 C 34.046875 17.421875 34.101562 17.511719 34.097656 17.535156 C 34.097656 17.554688 33.445312 18.238281 32.644531 19.050781 L 31.191406 20.523438 L 31.222656 22.375 C 31.238281 23.390625 31.25 24.914062 31.25 25.757812 L 31.25 27.289062 L 31.488281 27.3125 C 31.617188 27.324219 31.742188 27.316406 31.765625 27.296875 C 31.8125 27.257812 31.8125 21.261719 31.769531 21.1875 C 31.617188 20.941406 31.761719 20.75 33.140625 19.34375 L 34.480469 17.984375 L 34.851562 18.273438 C 37.578125 20.394531 41.539062 18.515625 41.554688 15.09375 C 41.566406 12.414062 39.066406 10.371094 36.53125 10.980469 M 38.316406 13.171875 C 39.867188 13.917969 39.902344 16.097656 38.378906 16.875 C 37.058594 17.546875 35.464844 16.664062 35.363281 15.207031 C 35.253906 13.585938 36.867188 12.472656 38.316406 13.171875 M 24.113281 13.121094 C 22.824219 13.539062 22.402344 15.109375 23.320312 16.089844 C 24.261719 17.097656 26.019531 16.660156 26.355469 15.332031 L 26.410156 15.101562 L 27.21875 15.101562 C 27.660156 15.101562 28.277344 15.085938 28.585938 15.066406 L 29.148438 15.035156 L 29.148438 35.800781 L 34 35.800781 L 34 28.949219 L 44.742188 28.949219 L 44.777344 29.113281 C 45.171875 30.9375 47.921875 30.601562 47.921875 28.726562 C 47.925781 26.960938 45.433594 26.519531 44.839844 28.183594 L 44.726562 28.5 L 34 28.5 L 34 25.449219 L 37.601562 25.449219 C 40.996094 25.449219 41.199219 25.453125 41.199219 25.539062 C 41.199219 25.726562 41.492188 26.234375 41.707031 26.417969 C 43.296875 27.785156 45.390625 25.53125 43.878906 24.078125 C 43.046875 23.28125 41.613281 23.636719 41.265625 24.730469 L 41.183594 25 L 34 25 L 34 21.949219 L 35.800781 21.949219 C 37.472656 21.949219 37.605469 21.957031 37.632812 22.039062 C 38.222656 23.78125 40.496094 23.78125 40.800781 22.039062 C 41.140625 20.09375 38.230469 19.378906 37.699219 21.273438 L 37.636719 21.5 L 35.703125 21.5 C 33.824219 21.5 33.765625 21.503906 33.660156 21.601562 L 33.550781 21.703125 L 33.550781 35.453125 L 31.539062 35.4375 L 29.523438 35.425781 L 29.5 14.691406 L 27.964844 14.707031 L 26.429688 14.726562 L 26.371094 14.476562 C 26.148438 13.484375 25.039062 12.820312 24.113281 13.121094 M 25.238281 13.601562 C 26.566406 14.265625 26.105469 16.265625 24.625 16.265625 C 23.785156 16.265625 23.148438 15.589844 23.214844 14.769531 C 23.292969 13.742188 24.328125 13.148438 25.238281 13.601562 M 22.75 17.023438 C 22.277344 17.160156 21.601562 17.621094 21.601562 17.808594 C 21.601562 17.832031 21.5625 17.914062 21.511719 17.988281 C 20.847656 19 21.769531 20.75 22.960938 20.75 L 23.101562 20.75 L 23.101562 24.324219 L 25.648438 26.875 L 28.199219 29.425781 L 28.199219 35.648438 L 28.5 35.648438 L 28.5 29.210938 L 23.449219 24.160156 L 23.449219 23.542969 C 23.449219 23.203125 23.433594 22.4375 23.417969 21.84375 L 23.382812 20.765625 L 23.554688 20.730469 C 24.730469 20.511719 25.410156 19.125 24.875 18.042969 C 24.71875 17.734375 24.640625 17.636719 24.285156 17.332031 C 23.925781 17.03125 23.222656 16.886719 22.75 17.023438 M 23.824219 17.472656 C 24.773438 17.910156 25.003906 19.171875 24.273438 19.921875 C 23.40625 20.816406 21.996094 20.421875 21.671875 19.195312 C 21.359375 18.011719 22.6875 16.949219 23.824219 17.472656 M 39.554688 21.429688 C 39.867188 21.714844 39.542969 22.285156 39.128906 22.179688 C 38.738281 22.082031 38.683594 21.476562 39.050781 21.332031 C 39.171875 21.285156 39.453125 21.339844 39.554688 21.429688 M 43.066406 24.902344 C 43.324219 25.105469 43.265625 25.519531 42.960938 25.644531 C 42.667969 25.765625 42.347656 25.546875 42.351562 25.230469 C 42.355469 24.867188 42.773438 24.671875 43.066406 24.902344 M 46.613281 28.398438 C 46.871094 28.605469 46.824219 28.980469 46.523438 29.121094 C 46.210938 29.269531 45.898438 29.066406 45.898438 28.714844 C 45.898438 28.359375 46.324219 28.171875 46.613281 28.398438 M 38.058594 31.136719 C 37.671875 35.796875 33.210938 38.859375 28.597656 37.628906 C 27.945312 37.457031 26.738281 36.871094 26.300781 36.515625 C 25.613281 35.960938 25.300781 35.6875 25.191406 35.546875 C 25.121094 35.453125 25.011719 35.320312 24.949219 35.25 C 24.097656 34.289062 23.375 32.570312 23.273438 31.25 C 23.222656 30.578125 23.320312 30.644531 22.386719 30.660156 L 21.578125 30.675781 L 21.59375 30.882812 L 21.605469 31.09375 L 21.140625 31.242188 C 20.679688 31.390625 19.84375 31.6875 19.820312 31.710938 C 19.804688 31.734375 19.9375 32.550781 20.019531 32.941406 C 20.066406 33.140625 20.101562 33.320312 20.101562 33.335938 C 20.101562 33.351562 20.535156 33.351562 21.0625 33.339844 L 22.027344 33.3125 L 22.171875 33.703125 C 22.253906 33.917969 22.320312 34.109375 22.320312 34.132812 C 22.324219 34.152344 22.203125 34.269531 22.050781 34.386719 C 21.898438 34.507812 21.609375 34.746094 21.402344 34.917969 C 21.199219 35.085938 21 35.25 20.957031 35.28125 C 20.867188 35.347656 20.941406 35.503906 21.410156 36.261719 C 21.773438 36.839844 21.652344 36.824219 22.621094 36.425781 C 23.574219 36.035156 23.472656 36.035156 23.789062 36.398438 C 24.117188 36.769531 24.121094 36.742188 23.679688 37.464844 C 23.09375 38.433594 23.117188 38.347656 23.367188 38.582031 C 23.578125 38.78125 23.925781 39.066406 24.253906 39.308594 L 24.433594 39.441406 L 24.75 39.167969 C 24.925781 39.015625 25.171875 38.792969 25.296875 38.675781 C 25.421875 38.558594 25.597656 38.402344 25.6875 38.328125 L 25.847656 38.195312 L 26.234375 38.402344 C 26.449219 38.515625 26.632812 38.617188 26.636719 38.621094 C 26.644531 38.628906 26.617188 38.789062 26.574219 38.976562 C 26.488281 39.335938 26.300781 40.335938 26.300781 40.429688 C 26.300781 40.511719 27.605469 41 27.820312 41 C 27.902344 40.996094 27.992188 40.863281 28.25 40.34375 C 28.722656 39.394531 28.71875 39.398438 28.910156 39.402344 C 29.269531 39.40625 29.664062 39.523438 29.679688 39.625 C 29.691406 39.679688 29.71875 39.871094 29.746094 40.050781 C 29.773438 40.230469 29.820312 40.511719 29.851562 40.675781 C 29.878906 40.839844 29.921875 41.066406 29.941406 41.175781 L 29.976562 41.375 L 30.351562 41.390625 C 30.964844 41.417969 31.636719 41.355469 31.671875 41.265625 C 31.6875 41.222656 31.746094 40.816406 31.804688 40.359375 C 31.914062 39.460938 31.910156 39.46875 32.25 39.421875 C 32.375 39.40625 32.550781 39.367188 32.640625 39.339844 C 32.730469 39.3125 32.8125 39.296875 32.820312 39.308594 C 32.828125 39.316406 32.953125 39.539062 33.101562 39.800781 C 33.246094 40.0625 33.453125 40.425781 33.558594 40.609375 L 33.75 40.941406 L 33.9375 40.890625 C 34.214844 40.816406 35.117188 40.460938 35.21875 40.386719 C 35.308594 40.320312 35.25 39.859375 35.042969 39.023438 C 34.933594 38.585938 34.933594 38.480469 35.058594 38.421875 C 35.121094 38.390625 35.292969 38.292969 35.433594 38.203125 C 35.734375 38.011719 35.691406 38 36.238281 38.484375 C 36.421875 38.652344 36.652344 38.851562 36.75 38.929688 C 36.847656 39.011719 36.96875 39.113281 37.023438 39.164062 C 37.160156 39.289062 37.398438 39.128906 38.140625 38.421875 L 38.410156 38.167969 L 38.210938 37.839844 C 38.101562 37.660156 37.882812 37.320312 37.730469 37.082031 C 37.410156 36.585938 37.402344 36.546875 37.578125 36.359375 C 37.652344 36.285156 37.765625 36.140625 37.835938 36.035156 C 37.925781 35.902344 37.988281 35.855469 38.046875 35.878906 C 39.53125 36.484375 39.773438 36.542969 39.894531 36.316406 C 39.945312 36.230469 40.019531 36.105469 40.0625 36.039062 C 40.371094 35.570312 40.613281 35 40.507812 35 C 40.488281 35 40.425781 34.960938 40.371094 34.910156 C 40.25 34.796875 39.339844 34.085938 39.199219 33.992188 L 39.089844 33.921875 L 39.234375 33.5 L 39.375 33.074219 L 40.308594 33.089844 L 41.238281 33.109375 L 41.289062 32.941406 C 41.433594 32.464844 41.570312 31.6875 41.542969 31.503906 C 41.527344 31.402344 41.460938 31.367188 41.050781 31.238281 C 39.769531 30.839844 39.777344 30.84375 39.757812 30.636719 L 39.742188 30.449219 L 38.117188 30.449219 L 38.058594 31.136719 M 41.875 42.699219 C 41.539062 42.835938 41.464844 43.308594 41.738281 43.554688 C 41.914062 43.710938 42.039062 43.734375 42.214844 43.644531 C 42.761719 43.363281 42.4375 42.46875 41.875 42.699219 M 33.199219 45.476562 L 33.199219 48.050781 L 33.949219 48.050781 L 33.949219 42.898438 L 33.199219 42.898438 L 33.199219 45.476562 M 26.394531 43.164062 C 25.671875 43.371094 25.292969 43.851562 25.292969 44.578125 C 25.292969 45.328125 25.648438 45.667969 26.773438 45.992188 C 27.566406 46.21875 27.800781 46.386719 27.800781 46.738281 C 27.800781 47.410156 26.589844 47.59375 25.734375 47.050781 C 25.429688 46.855469 25.445312 46.851562 25.308594 47.203125 C 25.148438 47.621094 25.347656 47.816406 26.136719 48.019531 C 27.441406 48.359375 28.550781 47.742188 28.550781 46.679688 C 28.550781 45.941406 28.171875 45.5625 27.148438 45.273438 C 26.113281 44.984375 25.859375 44.714844 26.128906 44.195312 C 26.34375 43.78125 27.3125 43.730469 27.941406 44.101562 C 28.144531 44.222656 28.148438 44.214844 28.277344 43.808594 L 28.363281 43.535156 L 28.246094 43.445312 C 27.898438 43.183594 26.878906 43.027344 26.394531 43.164062 M 16.9375 43.191406 L 16.601562 43.203125 L 16.601562 48.050781 L 19.550781 48.050781 L 19.554688 47.8125 C 19.558594 47.683594 19.566406 47.511719 19.570312 47.4375 L 19.585938 47.300781 L 17.351562 47.300781 L 17.351562 45.253906 C 17.351562 44.128906 17.332031 43.199219 17.3125 43.191406 C 17.292969 43.183594 17.125 43.179688 16.9375 43.191406 M 20.25 45.613281 L 20.25 48.050781 L 23.199219 48.050781 L 23.199219 47.300781 L 21 47.300781 L 20.976562 43.191406 L 20.25 43.175781 L 20.25 45.613281 M 13.300781 43.253906 C 13.300781 43.28125 13.152344 43.679688 12.972656 44.140625 C 12.789062 44.597656 12.550781 45.210938 12.441406 45.5 C 12.332031 45.789062 12.191406 46.148438 12.128906 46.300781 C 12.066406 46.453125 11.984375 46.652344 11.953125 46.75 C 11.917969 46.847656 11.847656 47.019531 11.792969 47.136719 C 11.742188 47.253906 11.699219 47.367188 11.699219 47.394531 C 11.699219 47.417969 11.644531 47.5625 11.578125 47.714844 C 11.429688 48.050781 11.429688 48.050781 11.878906 48.050781 L 12.242188 48.050781 L 12.304688 47.863281 C 12.335938 47.757812 12.429688 47.5 12.511719 47.289062 L 12.660156 46.898438 L 14.792969 46.898438 L 14.941406 47.289062 C 15.023438 47.5 15.117188 47.757812 15.152344 47.863281 L 15.21875 48.050781 L 15.609375 48.050781 C 15.824219 48.050781 16 48.039062 16 48.023438 C 16 48.007812 15.632812 47.058594 15.183594 45.910156 C 14.734375 44.761719 14.3125 43.683594 14.246094 43.511719 L 14.125 43.199219 L 13.710938 43.199219 C 13.457031 43.199219 13.300781 43.21875 13.300781 43.253906 M 39.199219 43.921875 L 39.199219 44.351562 L 38.644531 44.351562 L 38.660156 44.6875 C 38.671875 44.945312 38.691406 45.027344 38.75 45.03125 C 38.792969 45.035156 38.910156 45.042969 39.011719 45.042969 L 39.199219 45.050781 L 39.199219 46.097656 C 39.199219 47.269531 39.242188 47.503906 39.511719 47.785156 C 39.980469 48.277344 41.113281 48.160156 40.949219 47.636719 C 40.828125 47.257812 40.820312 47.246094 40.664062 47.328125 C 40.5 47.414062 40.414062 47.417969 40.214844 47.347656 C 39.972656 47.265625 39.949219 47.140625 39.949219 46.035156 L 39.949219 45.023438 L 40.773438 45.023438 L 40.804688 44.351562 L 39.953125 44.351562 L 39.941406 43.9375 L 39.925781 43.523438 L 39.5625 43.511719 L 39.199219 43.496094 L 39.199219 43.921875 M 13.976562 44.710938 C 14.105469 45.050781 14.285156 45.523438 14.375 45.761719 L 14.542969 46.199219 L 13.746094 46.199219 C 13.308594 46.199219 12.949219 46.179688 12.949219 46.15625 C 12.949219 46.132812 13.109375 45.6875 13.300781 45.167969 C 13.492188 44.648438 13.660156 44.195312 13.671875 44.164062 C 13.714844 44.050781 13.738281 44.09375 13.976562 44.710938 M 30.132812 44.394531 C 28.707031 44.972656 28.636719 47.296875 30.027344 47.933594 C 31.289062 48.511719 32.550781 47.496094 32.433594 45.996094 C 32.339844 44.777344 31.183594 43.972656 30.132812 44.394531 M 44.375 44.367188 C 42.722656 44.914062 42.757812 47.542969 44.425781 48.027344 C 45.910156 48.457031 47.105469 46.730469 46.371094 45.21875 C 46.035156 44.523438 45.101562 44.125 44.375 44.367188 M 48.503906 44.457031 C 48.332031 44.542969 48.179688 44.644531 48.164062 44.679688 C 48.113281 44.816406 48.050781 44.746094 48.050781 44.550781 L 48.050781 44.351562 L 47.351562 44.351562 L 47.351562 48.050781 L 48.039062 48.050781 L 48.0625 46.914062 C 48.085938 45.714844 48.109375 45.59375 48.347656 45.289062 C 48.585938 44.988281 49.199219 44.949219 49.492188 45.21875 C 49.730469 45.429688 49.75 45.5625 49.75 46.847656 L 49.75 48.050781 L 50.5 48.050781 L 50.5 46.8125 C 50.5 45.242188 50.425781 44.917969 49.976562 44.539062 C 49.644531 44.257812 48.972656 44.222656 48.503906 44.457031 M 52.007812 44.394531 C 51.5 44.570312 51.25 44.925781 51.253906 45.460938 C 51.257812 46.09375 51.511719 46.332031 52.386719 46.523438 C 53.039062 46.667969 53.136719 46.710938 53.203125 46.882812 C 53.390625 47.371094 52.496094 47.566406 51.722656 47.207031 L 51.402344 47.054688 L 51.304688 47.273438 C 51.128906 47.675781 51.128906 47.6875 51.308594 47.796875 C 52.199219 48.339844 53.585938 48.085938 53.878906 47.324219 C 54.152344 46.601562 53.78125 46.109375 52.789062 45.894531 C 52.023438 45.726562 51.882812 45.621094 51.96875 45.277344 C 52.042969 44.988281 52.78125 44.894531 53.292969 45.105469 C 53.4375 45.167969 53.558594 45.207031 53.570312 45.195312 C 53.578125 45.183594 53.644531 45.046875 53.714844 44.886719 L 53.84375 44.601562 L 53.699219 44.523438 C 53.257812 44.296875 52.472656 44.234375 52.007812 44.394531 M 34.957031 45.738281 L 34.976562 47.125 L 35.109375 47.382812 C 35.515625 48.152344 36.671875 48.339844 37.210938 47.722656 C 37.363281 47.546875 37.398438 47.570312 37.398438 47.824219 L 37.398438 48.050781 L 38.050781 48.050781 L 38.050781 44.351562 L 37.359375 44.351562 L 37.339844 45.488281 C 37.3125 46.878906 37.226562 47.132812 36.714844 47.304688 C 35.925781 47.5625 35.679688 47.15625 35.660156 45.539062 L 35.640625 44.351562 L 34.941406 44.351562 L 34.957031 45.738281 M 41.660156 46.1875 L 41.675781 48.023438 L 42.039062 48.039062 L 42.398438 48.054688 L 42.398438 44.351562 L 41.648438 44.351562 L 41.660156 46.1875 M 31.226562 45.160156 C 31.683594 45.46875 31.847656 46.269531 31.570312 46.824219 C 31.222656 47.527344 30.238281 47.523438 29.898438 46.816406 C 29.390625 45.765625 30.359375 44.5625 31.226562 45.160156 M 45.300781 45.128906 C 45.632812 45.3125 45.808594 45.640625 45.835938 46.121094 C 45.914062 47.628906 44.03125 47.828125 43.914062 46.324219 C 43.835938 45.359375 44.566406 44.730469 45.300781 45.128906 "/>
<path style=" stroke:none;fill-rule:evenodd;fill:rgb(98.431373%,98.431373%,98.431373%);fill-opacity:1;" d="M 0 32 L 0 64 L 64 64 L 64 0 L 0 0 L 0 32 M 38.476562 11 C 41.609375 11.808594 42.648438 15.734375 40.328125 18.023438 C 38.769531 19.5625 36.457031 19.609375 34.632812 18.140625 L 34.496094 18.027344 L 33.140625 19.390625 L 31.785156 20.757812 L 31.816406 24.054688 L 31.851562 27.355469 L 31.226562 27.324219 L 31.214844 23.898438 L 31.203125 20.476562 L 32.644531 19.019531 L 34.089844 17.566406 L 33.9375 17.320312 C 31.90625 14.070312 34.792969 10.046875 38.476562 11 M 37.101562 13.007812 C 35.980469 13.183594 35.179688 14.339844 35.414062 15.425781 C 35.902344 17.667969 38.988281 17.621094 39.453125 15.367188 C 39.722656 14.058594 38.457031 12.789062 37.101562 13.007812 M 25.214844 13.132812 C 25.441406 13.207031 25.851562 13.476562 25.988281 13.644531 C 26.175781 13.875 26.308594 14.128906 26.382812 14.40625 L 26.46875 14.714844 L 28.011719 14.6875 L 29.550781 14.664062 L 29.550781 35.398438 L 33.550781 35.398438 L 33.550781 28.5 C 33.550781 21.734375 33.550781 21.601562 33.648438 21.550781 C 33.707031 21.519531 34.4375 21.5 35.671875 21.5 C 37.175781 21.5 37.605469 21.484375 37.621094 21.4375 C 38.179688 19.488281 40.824219 19.746094 40.824219 21.75 C 40.824219 23.734375 38.175781 23.992188 37.621094 22.0625 C 37.605469 22.015625 37.203125 22 35.828125 22 L 34.050781 22 L 34.050781 25 L 41.199219 25 L 41.199219 24.886719 C 41.203125 24.148438 42.335938 23.433594 43.167969 23.644531 C 44.882812 24.074219 44.78125 26.523438 43.035156 26.851562 C 42.246094 27.003906 41.199219 26.285156 41.199219 25.59375 C 41.199219 25.503906 41.085938 25.5 37.625 25.5 L 34.050781 25.5 L 34.050781 26.976562 C 34.050781 28.253906 34.058594 28.449219 34.125 28.449219 C 34.167969 28.449219 36.550781 28.449219 39.425781 28.449219 C 42.296875 28.449219 44.671875 28.449219 44.699219 28.449219 C 44.726562 28.449219 44.75 28.410156 44.75 28.363281 C 44.753906 27.828125 45.511719 27.171875 46.195312 27.113281 C 48.011719 26.960938 48.664062 29.4375 47.011719 30.210938 C 46.117188 30.632812 44.75 29.960938 44.75 29.101562 C 44.75 29 44.746094 29 39.398438 29 L 34.050781 29 L 34.042969 32.3125 C 34.042969 34.132812 34.035156 35.660156 34.03125 35.699219 C 34.027344 35.765625 33.707031 35.777344 31.5625 35.789062 L 29.101562 35.800781 L 29.101562 15.101562 L 28.507812 15.101562 C 27.089844 15.101562 26.398438 15.15625 26.398438 15.269531 C 26.398438 15.5625 26.003906 16.121094 25.617188 16.378906 C 24.066406 17.40625 22.167969 15.710938 22.988281 14.039062 C 23.394531 13.214844 24.308594 12.839844 25.214844 13.132812 M 24.066406 13.597656 C 23.269531 13.960938 22.984375 15.035156 23.515625 15.683594 C 24.492188 16.867188 26.316406 15.957031 25.945312 14.472656 C 25.914062 14.351562 25.867188 14.25 25.84375 14.25 C 25.820312 14.25 25.800781 14.222656 25.800781 14.1875 C 25.800781 14.089844 25.351562 13.675781 25.140625 13.582031 C 24.886719 13.46875 24.335938 13.472656 24.066406 13.597656 M 23.847656 17.078125 C 25.585938 17.6875 25.417969 20.328125 23.613281 20.722656 L 23.449219 20.757812 L 23.449219 24.125 L 25.976562 26.648438 L 28.5 29.171875 L 28.5 35.699219 L 28.199219 35.699219 L 28.199219 29.433594 L 23.117188 24.351562 L 23.082031 23.742188 C 23.066406 23.40625 23.050781 22.609375 23.050781 21.96875 L 23.050781 20.804688 L 22.835938 20.75 C 22.175781 20.582031 21.746094 20.257812 21.480469 19.730469 C 20.695312 18.183594 22.199219 16.5 23.847656 17.078125 M 22.851562 17.394531 C 22.8125 17.421875 22.761719 17.433594 22.738281 17.417969 C 22.597656 17.332031 21.804688 18.035156 21.914062 18.148438 C 21.960938 18.195312 21.957031 18.203125 21.902344 18.191406 C 21.503906 18.101562 21.632812 19.40625 22.074219 19.890625 C 23.199219 21.136719 25.292969 19.730469 24.550781 18.226562 C 24.25 17.613281 23.25 17.125 22.851562 17.394531 M 39.125 21.347656 C 38.710938 21.515625 38.769531 22.105469 39.203125 22.136719 C 39.671875 22.171875 39.792969 21.589844 39.363281 21.359375 C 39.242188 21.292969 39.257812 21.292969 39.125 21.347656 M 42.542969 24.898438 C 42.21875 25.089844 42.410156 25.648438 42.800781 25.648438 C 42.953125 25.648438 43.199219 25.386719 43.199219 25.226562 C 43.199219 24.949219 42.800781 24.75 42.542969 24.898438 M 46.148438 28.371094 C 45.792969 28.570312 45.878906 29.046875 46.289062 29.128906 C 46.519531 29.175781 46.777344 28.917969 46.730469 28.6875 C 46.671875 28.390625 46.390625 28.238281 46.148438 28.371094 M 39.800781 30.621094 C 39.824219 30.808594 39.835938 30.820312 40.125 30.910156 C 41.160156 31.238281 41.527344 31.363281 41.558594 31.390625 C 41.59375 31.429688 41.488281 32.300781 41.402344 32.675781 C 41.292969 33.164062 41.410156 33.117188 40.347656 33.089844 L 39.410156 33.066406 L 39.273438 33.488281 C 39.195312 33.726562 39.15625 33.921875 39.179688 33.945312 C 39.203125 33.964844 39.492188 34.183594 39.816406 34.429688 C 40.140625 34.675781 40.457031 34.914062 40.515625 34.960938 L 40.625 35.042969 L 40.457031 35.382812 C 40.226562 35.851562 39.835938 36.507812 39.769531 36.53125 C 39.722656 36.550781 39.042969 36.3125 38.253906 36 L 38.003906 35.902344 L 37.726562 36.238281 L 37.453125 36.570312 L 37.542969 36.722656 C 37.59375 36.804688 37.820312 37.164062 38.046875 37.515625 L 38.460938 38.160156 L 38.269531 38.359375 C 38.160156 38.46875 37.867188 38.726562 37.613281 38.933594 L 37.148438 39.3125 L 36.914062 39.121094 C 36.78125 39.011719 36.597656 38.855469 36.5 38.769531 C 36.402344 38.683594 36.195312 38.5 36.035156 38.355469 C 35.691406 38.046875 35.730469 38.042969 34.964844 38.519531 C 34.960938 38.523438 35.046875 38.917969 35.152344 39.402344 C 35.261719 39.882812 35.347656 40.300781 35.347656 40.332031 C 35.351562 40.398438 34.140625 40.890625 33.875 40.933594 C 33.699219 40.964844 33.640625 40.878906 33.007812 39.699219 C 32.914062 39.519531 32.828125 39.367188 32.820312 39.355469 C 32.800781 39.335938 31.992188 39.492188 31.960938 39.523438 C 31.949219 39.535156 31.910156 39.796875 31.871094 40.109375 C 31.832031 40.421875 31.777344 40.839844 31.742188 41.039062 L 31.6875 41.398438 L 29.957031 41.398438 L 29.925781 41.238281 C 29.847656 40.839844 29.796875 40.542969 29.722656 40.074219 C 29.679688 39.800781 29.628906 39.5625 29.609375 39.546875 C 29.574219 39.515625 28.792969 39.390625 28.773438 39.410156 C 28.769531 39.417969 28.578125 39.785156 28.351562 40.226562 C 28.121094 40.664062 27.929688 41.035156 27.917969 41.046875 C 27.875 41.09375 26.390625 40.601562 26.292969 40.507812 C 26.257812 40.472656 26.28125 40.3125 26.480469 39.28125 C 26.550781 38.929688 26.601562 38.632812 26.589844 38.625 C 26.582031 38.617188 26.472656 38.5625 26.351562 38.5 C 26.226562 38.4375 26.0625 38.34375 25.988281 38.292969 L 25.855469 38.195312 L 25.488281 38.539062 C 24.867188 39.117188 24.484375 39.449219 24.433594 39.449219 C 24.359375 39.449219 23.707031 38.949219 23.375 38.640625 L 23.09375 38.375 L 23.375 37.898438 C 23.53125 37.640625 23.746094 37.28125 23.855469 37.105469 C 24.019531 36.839844 24.042969 36.773438 23.988281 36.707031 C 23.488281 36.0625 23.519531 36.074219 23.039062 36.292969 C 22.738281 36.429688 21.796875 36.800781 21.75 36.800781 C 21.6875 36.800781 20.851562 35.4375 20.851562 35.332031 C 20.851562 35.320312 21.175781 35.046875 21.578125 34.722656 C 22.109375 34.292969 22.296875 34.113281 22.273438 34.054688 C 22.257812 34.011719 22.183594 33.820312 22.109375 33.632812 L 21.976562 33.292969 L 21.777344 33.320312 C 21.664062 33.332031 21.246094 33.359375 20.839844 33.378906 L 20.105469 33.410156 L 20.046875 33.195312 C 19.964844 32.890625 19.800781 31.960938 19.800781 31.804688 C 19.800781 31.65625 19.8125 31.648438 20.886719 31.292969 L 21.550781 31.074219 L 21.550781 30.601562 L 23.242188 30.601562 L 23.269531 30.8125 C 23.285156 30.929688 23.308594 31.195312 23.324219 31.398438 C 23.359375 31.867188 23.601562 32.824219 23.808594 33.316406 C 25.316406 36.890625 29.285156 38.707031 32.976562 37.515625 C 35.796875 36.605469 37.898438 33.929688 38.03125 31.074219 C 38.046875 30.773438 38.066406 30.5 38.074219 30.464844 C 38.089844 30.425781 38.332031 30.410156 38.933594 30.417969 L 39.773438 30.425781 L 39.800781 30.621094 M 42.273438 42.699219 C 42.453125 42.765625 42.574219 43.039062 42.527344 43.273438 C 42.40625 43.917969 41.550781 43.824219 41.550781 43.167969 C 41.550781 42.769531 41.882812 42.550781 42.273438 42.699219 M 33.949219 45.449219 L 33.949219 48.050781 L 33.199219 48.050781 L 33.199219 42.851562 L 33.949219 42.851562 L 33.949219 45.449219 M 27.761719 43.199219 C 27.933594 43.253906 28.148438 43.34375 28.242188 43.398438 C 28.421875 43.511719 28.421875 43.496094 28.242188 43.980469 L 28.148438 44.238281 L 27.847656 44.089844 C 26.929688 43.644531 25.929688 43.933594 26.074219 44.601562 C 26.140625 44.898438 26.324219 45 27.273438 45.277344 C 28.445312 45.621094 28.890625 46.429688 28.417969 47.359375 C 27.972656 48.242188 26.195312 48.414062 25.308594 47.660156 L 25.148438 47.523438 L 25.28125 47.1875 C 25.433594 46.8125 25.449219 46.800781 25.65625 46.972656 C 26.15625 47.394531 27.242188 47.464844 27.609375 47.101562 C 27.984375 46.722656 27.730469 46.3125 26.96875 46.082031 C 25.777344 45.714844 25.621094 45.625 25.390625 45.164062 C 24.734375 43.847656 26.132812 42.691406 27.761719 43.199219 M 14.324219 43.636719 C 14.425781 43.90625 14.722656 44.652344 14.976562 45.300781 C 15.59375 46.859375 15.789062 47.363281 15.929688 47.738281 L 16.046875 48.054688 L 15.179688 48.023438 L 14.980469 47.488281 L 14.78125 46.949219 L 12.664062 46.949219 L 12.46875 47.488281 L 12.273438 48.023438 L 11.84375 48.039062 L 11.410156 48.054688 L 12.160156 46.140625 C 12.570312 45.085938 13 43.984375 13.117188 43.6875 L 13.324219 43.148438 L 14.132812 43.148438 L 14.324219 43.636719 M 17.398438 45.199219 L 17.398438 47.25 L 19.601562 47.25 L 19.601562 48.050781 L 16.550781 48.050781 L 16.550781 43.148438 L 17.398438 43.148438 L 17.398438 45.199219 M 21.023438 45.210938 L 21.023438 47.25 L 23.25 47.25 L 23.25 48.050781 L 20.199219 48.050781 L 20.199219 43.144531 L 20.613281 43.160156 L 21.023438 43.175781 L 21.023438 45.210938 M 39.960938 43.914062 L 39.976562 44.324219 L 40.414062 44.339844 L 40.855469 44.355469 L 40.839844 44.6875 L 40.824219 45.023438 L 40.382812 45.039062 L 39.945312 45.054688 L 39.960938 46.074219 C 39.980469 47.335938 40.128906 47.582031 40.707031 47.28125 C 40.835938 47.214844 40.835938 47.214844 40.925781 47.492188 C 40.972656 47.648438 41.023438 47.800781 41.035156 47.832031 C 41.117188 48.050781 40.160156 48.183594 39.773438 48.003906 C 39.257812 47.765625 39.183594 47.546875 39.160156 46.164062 L 39.140625 45.050781 L 38.648438 45.050781 L 38.648438 44.324219 L 38.898438 44.34375 L 39.148438 44.359375 L 39.148438 43.5 L 39.945312 43.5 L 39.960938 43.914062 M 13.34375 45.132812 C 13.140625 45.675781 12.96875 46.136719 12.957031 46.160156 C 12.949219 46.183594 13.292969 46.199219 13.722656 46.199219 C 14.148438 46.199219 14.5 46.191406 14.5 46.183594 C 14.5 46.152344 13.75 44.183594 13.730469 44.164062 C 13.722656 44.15625 13.546875 44.589844 13.34375 45.132812 M 31.375 44.382812 C 32.132812 44.632812 32.628906 45.6875 32.433594 46.632812 C 31.96875 48.851562 29 48.476562 29 46.199219 C 29 44.792969 30.085938 43.964844 31.375 44.382812 M 45.636719 44.453125 C 46.960938 45.097656 46.925781 47.320312 45.578125 47.957031 C 44.339844 48.542969 43.101562 47.585938 43.160156 46.082031 C 43.214844 44.664062 44.425781 43.867188 45.636719 44.453125 M 49.761719 44.386719 C 50.375 44.632812 50.511719 45.039062 50.539062 46.710938 L 50.558594 48.050781 L 49.757812 48.050781 L 49.742188 46.835938 C 49.722656 45.332031 49.605469 45.050781 49.003906 45.050781 C 48.292969 45.050781 48.128906 45.386719 48.109375 46.886719 L 48.09375 48.050781 L 47.300781 48.050781 L 47.300781 44.300781 L 48.050781 44.300781 L 48.050781 44.476562 C 48.050781 44.664062 48.140625 44.707031 48.253906 44.570312 C 48.496094 44.277344 49.257812 44.183594 49.761719 44.386719 M 53.046875 44.304688 C 53.382812 44.355469 53.851562 44.53125 53.851562 44.601562 C 53.851562 44.691406 53.585938 45.25 53.542969 45.25 C 53.515625 45.25 53.402344 45.199219 53.285156 45.140625 C 52.765625 44.871094 52.003906 45.027344 52.003906 45.398438 C 52.003906 45.640625 52.144531 45.730469 52.722656 45.851562 C 53.699219 46.054688 53.949219 46.28125 53.949219 46.941406 C 53.949219 47.988281 52.683594 48.445312 51.390625 47.867188 C 51.050781 47.714844 51.058594 47.75 51.25 47.328125 L 51.398438 46.996094 L 51.617188 47.125 C 52.308594 47.527344 53.300781 47.402344 53.179688 46.925781 C 53.132812 46.742188 52.984375 46.671875 52.398438 46.546875 C 51.578125 46.378906 51.339844 46.210938 51.242188 45.746094 C 51.03125 44.75 51.835938 44.105469 53.046875 44.304688 M 35.699219 45.488281 C 35.703125 46.535156 35.714844 46.699219 35.792969 46.878906 C 36.066406 47.476562 36.847656 47.460938 37.164062 46.851562 L 37.300781 46.582031 L 37.300781 44.300781 L 38.101562 44.300781 L 38.101562 48.050781 L 37.355469 48.050781 L 37.339844 47.871094 L 37.324219 47.695312 L 37.148438 47.824219 C 36.613281 48.226562 35.71875 48.1875 35.316406 47.746094 C 34.96875 47.359375 34.902344 46.988281 34.898438 45.460938 L 34.898438 44.300781 L 35.699219 44.300781 L 35.699219 45.488281 M 42.425781 46.175781 L 42.425781 48.023438 L 42.039062 48.039062 L 41.648438 48.054688 L 41.648438 44.296875 L 42.039062 44.308594 L 42.425781 44.324219 L 42.425781 46.175781 M 30.324219 45.144531 C 29.316406 45.769531 29.84375 47.59375 30.949219 47.304688 C 31.820312 47.074219 31.953125 45.558594 31.140625 45.144531 C 30.898438 45.023438 30.523438 45.019531 30.324219 45.144531 M 44.425781 45.164062 C 43.84375 45.488281 43.761719 46.621094 44.28125 47.109375 C 44.75 47.546875 45.546875 47.304688 45.738281 46.664062 C 46.054688 45.617188 45.253906 44.699219 44.425781 45.164062 "/>
<path style=" stroke:none;fill-rule:evenodd;fill:rgb(0%,0%,0%);fill-opacity:1;" d="M 29.523438 24.949219 C 29.523438 30.628906 29.53125 32.953125 29.539062 30.113281 C 29.542969 27.273438 29.542969 22.625 29.539062 19.789062 C 29.53125 16.949219 29.523438 19.269531 29.523438 24.949219 M 28.851562 15.070312 C 28.851562 15.078125 28.917969 15.097656 28.996094 15.109375 C 29.078125 15.121094 29.132812 15.113281 29.121094 15.089844 C 29.09375 15.050781 28.851562 15.03125 28.851562 15.070312 M 29.125 25.5 C 29.125 31.179688 29.128906 33.5 29.136719 30.664062 C 29.144531 27.824219 29.144531 23.175781 29.136719 20.335938 C 29.128906 17.5 29.125 19.820312 29.125 25.5 M 24.539062 16.683594 C 24.601562 16.699219 24.691406 16.695312 24.738281 16.683594 C 24.785156 16.671875 24.734375 16.660156 24.625 16.664062 C 24.515625 16.664062 24.476562 16.671875 24.539062 16.683594 M 34.664062 25.488281 C 35.011719 25.496094 35.585938 25.496094 35.9375 25.488281 C 36.289062 25.480469 36 25.472656 35.300781 25.472656 C 34.597656 25.472656 34.3125 25.480469 34.664062 25.488281 M 37.761719 25.488281 C 38.386719 25.496094 39.410156 25.496094 40.039062 25.488281 C 40.664062 25.480469 40.152344 25.472656 38.898438 25.472656 C 37.648438 25.472656 37.136719 25.480469 37.761719 25.488281 M 34.640625 28.988281 C 34.980469 28.996094 35.519531 28.996094 35.839844 28.988281 C 36.160156 28.980469 35.886719 28.972656 35.226562 28.972656 C 34.566406 28.972656 34.300781 28.980469 34.640625 28.988281 M 38.714844 28.988281 C 39.785156 28.996094 41.515625 28.996094 42.566406 28.988281 C 43.617188 28.980469 42.742188 28.972656 40.625 28.972656 C 38.507812 28.972656 37.648438 28.980469 38.714844 28.988281 M 21.886719 30.636719 C 22.058594 30.648438 22.339844 30.648438 22.511719 30.636719 C 22.683594 30.628906 22.542969 30.621094 22.199219 30.621094 C 21.855469 30.621094 21.714844 30.628906 21.886719 30.636719 M 35.921875 35.710938 L 35.625 36.023438 L 35.9375 35.726562 C 36.109375 35.5625 36.25 35.421875 36.25 35.414062 C 36.25 35.378906 36.199219 35.421875 35.921875 35.710938 M 48.070312 47.101562 C 48.070312 47.582031 48.078125 47.777344 48.085938 47.539062 C 48.097656 47.296875 48.097656 46.902344 48.085938 46.664062 C 48.078125 46.421875 48.070312 46.617188 48.070312 47.101562 M 13.210938 46.9375 C 13.449219 46.945312 13.855469 46.945312 14.109375 46.9375 C 14.367188 46.929688 14.171875 46.921875 13.675781 46.921875 C 13.179688 46.921875 12.972656 46.929688 13.210938 46.9375 "/>
<path style=" stroke:none;fill-rule:evenodd;fill:rgb(61.568627%,69.803922%,81.568627%);fill-opacity:1;" d="M 37.238281 10.886719 C 37.355469 10.898438 37.535156 10.898438 37.640625 10.886719 C 37.742188 10.875 37.644531 10.867188 37.425781 10.867188 C 37.203125 10.867188 37.121094 10.875 37.238281 10.886719 M 34.222656 12.363281 L 34.074219 12.523438 L 34.238281 12.378906 C 34.328125 12.296875 34.398438 12.222656 34.398438 12.214844 C 34.398438 12.175781 34.359375 12.210938 34.222656 12.363281 M 40.800781 12.636719 C 40.867188 12.726562 40.925781 12.800781 40.9375 12.800781 C 40.972656 12.800781 40.851562 12.613281 40.769531 12.546875 C 40.714844 12.503906 40.726562 12.535156 40.800781 12.636719 M 35.949219 13.585938 L 35.773438 13.773438 L 35.960938 13.601562 C 36.136719 13.441406 36.171875 13.398438 36.136719 13.398438 C 36.125 13.398438 36.042969 13.484375 35.949219 13.585938 M 24.511719 13.484375 C 24.589844 13.496094 24.703125 13.496094 24.761719 13.484375 C 24.824219 13.472656 24.761719 13.464844 24.625 13.464844 C 24.488281 13.464844 24.4375 13.472656 24.511719 13.484375 M 25.550781 13.875 C 25.644531 13.972656 25.730469 14.050781 25.746094 14.050781 C 25.757812 14.050781 25.691406 13.972656 25.601562 13.875 C 25.507812 13.777344 25.417969 13.699219 25.40625 13.699219 C 25.390625 13.699219 25.457031 13.777344 25.550781 13.875 M 41.5625 14.699219 C 41.5625 14.824219 41.574219 14.875 41.585938 14.8125 C 41.597656 14.75 41.597656 14.648438 41.585938 14.585938 C 41.574219 14.527344 41.5625 14.578125 41.5625 14.699219 M 33.265625 14.773438 C 33.265625 14.914062 33.273438 14.960938 33.285156 14.886719 C 33.296875 14.8125 33.296875 14.699219 33.285156 14.636719 C 33.273438 14.574219 33.265625 14.636719 33.265625 14.773438 M 23.214844 14.851562 C 23.214844 14.972656 23.222656 15.023438 23.234375 14.960938 C 23.246094 14.902344 23.246094 14.800781 23.234375 14.738281 C 23.222656 14.675781 23.214844 14.726562 23.214844 14.851562 M 26.710938 15.136719 C 26.84375 15.148438 27.058594 15.148438 27.1875 15.136719 C 27.316406 15.125 27.210938 15.117188 26.949219 15.117188 C 26.6875 15.117188 26.582031 15.125 26.710938 15.136719 M 33.265625 15.300781 C 33.265625 15.421875 33.273438 15.472656 33.285156 15.414062 C 33.296875 15.351562 33.296875 15.25 33.285156 15.1875 C 33.273438 15.125 33.265625 15.175781 33.265625 15.300781 M 41.5625 15.324219 C 41.566406 15.460938 41.574219 15.511719 41.585938 15.4375 C 41.597656 15.359375 41.597656 15.25 41.585938 15.1875 C 41.574219 15.125 41.5625 15.1875 41.5625 15.324219 M 22.070312 17.8125 L 21.925781 17.976562 L 22.085938 17.828125 C 22.175781 17.746094 22.25 17.675781 22.25 17.664062 C 22.25 17.628906 22.207031 17.660156 22.070312 17.8125 M 40.324219 18.011719 L 40.125 18.226562 L 40.335938 18.027344 C 40.453125 17.917969 40.550781 17.824219 40.550781 17.816406 C 40.550781 17.777344 40.507812 17.816406 40.324219 18.011719 M 33.625 18.851562 C 33.15625 19.316406 32.789062 19.699219 32.804688 19.699219 C 32.820312 19.699219 33.199219 19.328125 33.652344 18.875 C 34.132812 18.386719 34.5 18.058594 34.539062 18.074219 C 34.574219 18.085938 34.589844 18.078125 34.574219 18.050781 C 34.519531 17.960938 34.480469 17.992188 33.625 18.851562 M 21.265625 18.851562 C 21.265625 19 21.273438 19.0625 21.285156 18.988281 C 21.296875 18.910156 21.296875 18.789062 21.285156 18.710938 C 21.273438 18.636719 21.265625 18.699219 21.265625 18.851562 M 37.761719 19.183594 C 37.8125 19.195312 37.890625 19.195312 37.9375 19.183594 C 37.984375 19.171875 37.945312 19.160156 37.851562 19.160156 C 37.753906 19.160156 37.714844 19.171875 37.761719 19.183594 M 31.371094 20.3125 L 31.175781 20.523438 L 31.386719 20.328125 C 31.585938 20.144531 31.621094 20.101562 31.585938 20.101562 C 31.578125 20.101562 31.480469 20.195312 31.371094 20.3125 M 22.988281 20.789062 C 23.03125 20.820312 23.050781 21.148438 23.0625 22.027344 L 23.078125 23.226562 L 23.089844 21.988281 C 23.097656 20.835938 23.09375 20.75 23.011719 20.75 C 22.953125 20.75 22.945312 20.761719 22.988281 20.789062 M 23.417969 21.449219 C 23.417969 21.847656 23.425781 22.011719 23.4375 21.8125 C 23.445312 21.613281 23.445312 21.285156 23.4375 21.085938 C 23.425781 20.886719 23.417969 21.050781 23.417969 21.449219 M 34.023438 23.5 C 34.023438 24.339844 34.027344 24.683594 34.039062 24.261719 C 34.046875 23.84375 34.046875 23.15625 34.039062 22.738281 C 34.027344 22.316406 34.023438 22.660156 34.023438 23.5 M 31.222656 25.5 C 31.222656 26.503906 31.230469 26.914062 31.238281 26.414062 C 31.246094 25.910156 31.246094 25.089844 31.238281 24.585938 C 31.230469 24.085938 31.222656 24.496094 31.222656 25.5 M 31.820312 25.800781 C 31.820312 26.117188 31.828125 26.246094 31.835938 26.085938 C 31.847656 25.929688 31.847656 25.671875 31.835938 25.511719 C 31.828125 25.355469 31.820312 25.484375 31.820312 25.800781 M 34.011719 26.988281 L 34 28.5 L 34.113281 28.496094 C 34.195312 28.488281 34.203125 28.484375 34.136719 28.464844 C 34.058594 28.445312 34.050781 28.320312 34.039062 26.960938 L 34.023438 25.476562 L 34.011719 26.988281 M 31.8125 26.601562 C 31.8125 26.695312 31.820312 26.734375 31.835938 26.6875 C 31.847656 26.640625 31.847656 26.5625 31.835938 26.511719 C 31.820312 26.464844 31.8125 26.503906 31.8125 26.601562 M 36.867188 28.488281 C 38.292969 28.496094 40.609375 28.496094 42.015625 28.488281 C 43.421875 28.480469 42.257812 28.472656 39.425781 28.472656 C 36.59375 28.472656 35.441406 28.480469 36.867188 28.488281 M 34.023438 32.300781 C 34.023438 34.128906 34.03125 34.875 34.039062 33.960938 C 34.046875 33.046875 34.046875 31.550781 34.039062 30.636719 C 34.03125 29.722656 34.023438 30.472656 34.023438 32.300781 M 38.070312 30.472656 C 38.054688 30.507812 38.050781 30.605469 38.0625 30.683594 C 38.082031 30.804688 38.085938 30.796875 38.09375 30.640625 L 38.101562 30.453125 L 38.4375 30.4375 L 38.773438 30.417969 L 38.4375 30.410156 C 38.183594 30.402344 38.089844 30.417969 38.070312 30.472656 M 39.1875 30.4375 C 39.273438 30.445312 39.433594 30.449219 39.535156 30.4375 C 39.640625 30.425781 39.566406 30.417969 39.375 30.417969 C 39.183594 30.417969 39.097656 30.425781 39.1875 30.4375 M 23.265625 31 C 23.265625 31.125 23.273438 31.175781 23.285156 31.113281 C 23.296875 31.050781 23.296875 30.949219 23.285156 30.886719 C 23.273438 30.824219 23.265625 30.875 23.265625 31 M 39.863281 33.085938 C 39.9375 33.097656 40.0625 33.097656 40.136719 33.085938 C 40.214844 33.074219 40.152344 33.066406 40 33.066406 C 39.847656 33.066406 39.785156 33.074219 39.863281 33.085938 M 20.589844 33.386719 C 20.648438 33.398438 20.742188 33.398438 20.789062 33.382812 C 20.835938 33.371094 20.785156 33.363281 20.675781 33.363281 C 20.566406 33.363281 20.527344 33.375 20.589844 33.386719 M 25.375 35.699219 C 25.539062 35.863281 25.683594 36 25.695312 36 C 25.710938 36 25.589844 35.863281 25.425781 35.699219 C 25.261719 35.535156 25.117188 35.398438 25.101562 35.398438 C 25.089844 35.398438 25.210938 35.535156 25.375 35.699219 M 33.335938 42.886719 C 33.425781 42.898438 33.582031 42.898438 33.6875 42.886719 C 33.789062 42.875 33.71875 42.867188 33.523438 42.867188 C 33.332031 42.867188 33.246094 42.875 33.335938 42.886719 M 42.511719 43.148438 C 42.511719 43.246094 42.523438 43.285156 42.535156 43.238281 C 42.546875 43.1875 42.546875 43.109375 42.535156 43.0625 C 42.523438 43.015625 42.511719 43.054688 42.511719 43.148438 M 26.886719 43.085938 C 26.949219 43.097656 27.050781 43.097656 27.113281 43.085938 C 27.175781 43.074219 27.125 43.0625 27 43.0625 C 26.875 43.0625 26.824219 43.074219 26.886719 43.085938 M 16.574219 45.574219 C 16.574219 46.921875 16.578125 47.464844 16.585938 46.785156 C 16.59375 46.101562 16.59375 45 16.585938 44.335938 C 16.578125 43.667969 16.574219 44.226562 16.574219 45.574219 M 17.375 45.210938 L 17.375 47.273438 L 18.488281 47.277344 L 19.601562 47.277344 L 18.5 47.261719 L 17.402344 47.25 L 17.386719 45.199219 L 17.375 43.148438 L 17.375 45.210938 M 21.023438 45.199219 C 21.023438 46.3125 21.03125 46.769531 21.039062 46.210938 C 21.046875 45.65625 21.046875 44.746094 21.039062 44.1875 C 21.03125 43.628906 21.023438 44.085938 21.023438 45.199219 M 28.25 43.457031 C 28.375 43.582031 28.4375 43.601562 28.378906 43.503906 C 28.359375 43.472656 28.296875 43.425781 28.234375 43.394531 C 28.136719 43.34375 28.136719 43.347656 28.25 43.457031 M 25.621094 43.5625 L 25.476562 43.726562 L 25.636719 43.578125 C 25.726562 43.496094 25.800781 43.425781 25.800781 43.414062 C 25.800781 43.378906 25.757812 43.410156 25.621094 43.5625 M 39.167969 43.925781 C 39.167969 44.171875 39.175781 44.28125 39.1875 44.164062 C 39.195312 44.046875 39.195312 43.84375 39.1875 43.714844 C 39.175781 43.582031 39.167969 43.675781 39.167969 43.925781 M 30.636719 44.285156 C 30.699219 44.296875 30.789062 44.296875 30.839844 44.285156 C 30.886719 44.273438 30.835938 44.261719 30.726562 44.261719 C 30.613281 44.261719 30.574219 44.273438 30.636719 44.285156 M 44.789062 44.285156 C 44.851562 44.296875 44.941406 44.296875 44.988281 44.285156 C 45.035156 44.273438 44.984375 44.261719 44.875 44.261719 C 44.765625 44.261719 44.726562 44.273438 44.789062 44.285156 M 49.0625 44.285156 C 49.109375 44.296875 49.1875 44.296875 49.238281 44.285156 C 49.285156 44.273438 49.246094 44.261719 49.148438 44.261719 C 49.054688 44.261719 49.015625 44.273438 49.0625 44.285156 M 52.539062 44.285156 C 52.597656 44.296875 52.699219 44.296875 52.761719 44.285156 C 52.824219 44.273438 52.773438 44.265625 52.648438 44.265625 C 52.527344 44.265625 52.476562 44.273438 52.539062 44.285156 M 34.921875 45.523438 C 34.921875 46.210938 34.929688 46.5 34.9375 46.164062 C 34.945312 45.832031 34.945312 45.269531 34.9375 44.914062 C 34.929688 44.5625 34.921875 44.835938 34.921875 45.523438 M 35.238281 44.335938 C 35.300781 44.347656 35.402344 44.347656 35.460938 44.335938 C 35.523438 44.324219 35.472656 44.3125 35.351562 44.3125 C 35.226562 44.3125 35.175781 44.324219 35.238281 44.335938 M 37.320312 45.324219 C 37.320312 45.902344 37.328125 46.132812 37.335938 45.835938 C 37.347656 45.539062 37.347656 45.066406 37.335938 44.785156 C 37.328125 44.503906 37.320312 44.746094 37.320312 45.324219 M 37.636719 44.335938 C 37.699219 44.347656 37.800781 44.347656 37.863281 44.335938 C 37.925781 44.324219 37.875 44.3125 37.75 44.3125 C 37.625 44.3125 37.574219 44.324219 37.636719 44.335938 M 41.886719 44.335938 C 41.976562 44.347656 42.125 44.347656 42.210938 44.335938 C 42.300781 44.324219 42.230469 44.316406 42.050781 44.316406 C 41.871094 44.316406 41.796875 44.324219 41.886719 44.335938 M 47.324219 46.175781 C 47.324219 47.21875 47.328125 47.65625 47.335938 47.140625 C 47.34375 46.628906 47.34375 45.773438 47.335938 45.242188 C 47.328125 44.710938 47.324219 45.128906 47.324219 46.175781 M 40.816406 44.675781 C 40.816406 44.867188 40.824219 44.941406 40.835938 44.835938 C 40.847656 44.734375 40.847656 44.574219 40.835938 44.488281 C 40.824219 44.398438 40.816406 44.484375 40.816406 44.675781 M 42.421875 46.175781 C 42.421875 47.191406 42.429688 47.601562 42.4375 47.085938 C 42.445312 46.566406 42.445312 45.734375 42.4375 45.234375 C 42.429688 44.734375 42.421875 45.15625 42.421875 46.175781 M 29.523438 44.761719 L 29.375 44.925781 L 29.539062 44.777344 C 29.625 44.699219 29.699219 44.625 29.699219 44.617188 C 29.699219 44.578125 29.660156 44.609375 29.523438 44.761719 M 45.898438 44.617188 C 45.898438 44.625 45.972656 44.699219 46.0625 44.777344 L 46.226562 44.925781 L 46.078125 44.761719 C 45.941406 44.609375 45.898438 44.578125 45.898438 44.617188 M 30.664062 45.035156 C 30.710938 45.046875 30.789062 45.046875 30.835938 45.035156 C 30.886719 45.023438 30.847656 45.011719 30.75 45.011719 C 30.652344 45.011719 30.613281 45.023438 30.664062 45.035156 M 44.761719 45.035156 C 44.8125 45.046875 44.890625 45.046875 44.9375 45.035156 C 44.984375 45.023438 44.945312 45.011719 44.851562 45.011719 C 44.753906 45.011719 44.714844 45.023438 44.761719 45.035156 M 39.171875 46.050781 C 39.171875 46.613281 39.179688 46.84375 39.1875 46.5625 C 39.195312 46.28125 39.195312 45.820312 39.1875 45.539062 C 39.179688 45.253906 39.171875 45.484375 39.171875 46.050781 M 30.070312 45.3125 L 29.925781 45.476562 L 30.085938 45.328125 C 30.175781 45.246094 30.25 45.175781 30.25 45.164062 C 30.25 45.128906 30.207031 45.160156 30.070312 45.3125 M 45.351562 45.164062 C 45.351562 45.175781 45.421875 45.246094 45.507812 45.328125 C 45.617188 45.429688 45.644531 45.445312 45.597656 45.371094 C 45.542969 45.277344 45.351562 45.121094 45.351562 45.164062 M 51.960938 45.398438 C 51.960938 45.496094 51.972656 45.535156 51.984375 45.488281 C 51.996094 45.4375 51.996094 45.359375 51.984375 45.3125 C 51.972656 45.265625 51.960938 45.304688 51.960938 45.398438 M 28.199219 45.773438 C 28.292969 45.871094 28.378906 45.949219 28.394531 45.949219 C 28.410156 45.949219 28.34375 45.871094 28.25 45.773438 C 28.15625 45.679688 28.070312 45.601562 28.054688 45.601562 C 28.042969 45.601562 28.105469 45.679688 28.199219 45.773438 M 50.523438 46.824219 C 50.523438 47.511719 50.527344 47.800781 50.539062 47.464844 C 50.546875 47.128906 50.546875 46.566406 50.539062 46.214844 C 50.527344 45.863281 50.523438 46.136719 50.523438 46.824219 M 45.816406 46.175781 C 45.816406 46.339844 45.824219 46.402344 45.835938 46.3125 C 45.847656 46.222656 45.847656 46.085938 45.835938 46.011719 C 45.824219 45.9375 45.816406 46.011719 45.816406 46.175781 M 51.300781 45.980469 C 51.300781 46.007812 51.375 46.097656 51.460938 46.179688 L 51.625 46.324219 L 51.476562 46.148438 C 51.390625 46.054688 51.320312 45.964844 51.3125 45.953125 C 51.304688 45.941406 51.300781 45.957031 51.300781 45.980469 M 29.761719 46.175781 C 29.761719 46.285156 29.773438 46.324219 29.785156 46.261719 C 29.796875 46.199219 29.796875 46.109375 29.785156 46.0625 C 29.773438 46.015625 29.761719 46.066406 29.761719 46.175781 M 32.464844 46.199219 C 32.464844 46.324219 32.472656 46.375 32.484375 46.3125 C 32.496094 46.25 32.496094 46.148438 32.484375 46.085938 C 32.472656 46.027344 32.464844 46.078125 32.464844 46.199219 M 28.5625 46.675781 C 28.5625 46.785156 28.574219 46.824219 28.585938 46.761719 C 28.597656 46.699219 28.597656 46.609375 28.585938 46.5625 C 28.570312 46.515625 28.5625 46.566406 28.5625 46.675781 M 27.761719 46.726562 C 27.761719 46.835938 27.773438 46.875 27.785156 46.8125 C 27.796875 46.75 27.796875 46.660156 27.785156 46.613281 C 27.773438 46.5625 27.761719 46.613281 27.761719 46.726562 M 21.566406 47.289062 C 21.890625 47.296875 22.40625 47.296875 22.714844 47.289062 C 23.023438 47.277344 22.757812 47.269531 22.125 47.269531 C 21.492188 47.273438 21.242188 47.277344 21.566406 47.289062 M 36.339844 47.335938 C 36.398438 47.347656 36.492188 47.347656 36.539062 47.335938 C 36.585938 47.320312 36.535156 47.3125 36.425781 47.3125 C 36.316406 47.3125 36.277344 47.324219 36.339844 47.335938 M 53.625 47.695312 C 53.496094 47.839844 53.46875 47.886719 53.554688 47.824219 C 53.683594 47.726562 53.875 47.503906 53.84375 47.480469 C 53.832031 47.472656 53.734375 47.570312 53.625 47.695312 M 35.199219 47.617188 C 35.199219 47.625 35.273438 47.699219 35.363281 47.777344 L 35.523438 47.925781 L 35.378906 47.761719 C 35.242188 47.609375 35.199219 47.578125 35.199219 47.617188 M 37.285156 47.632812 C 37.222656 47.695312 37.25 47.746094 37.324219 47.71875 C 37.367188 47.703125 37.398438 47.667969 37.398438 47.644531 C 37.398438 47.59375 37.332031 47.585938 37.285156 47.632812 M 26.664062 48.136719 C 26.765625 48.148438 26.933594 48.148438 27.039062 48.136719 C 27.140625 48.125 27.054688 48.117188 26.851562 48.117188 C 26.644531 48.117188 26.558594 48.125 26.664062 48.136719 "/>
<path style=" stroke:none;fill-rule:evenodd;fill:rgb(50.588235%,50.588235%,50.588235%);fill-opacity:1;" d="M 27.113281 14.738281 C 27.300781 14.746094 27.59375 14.746094 27.765625 14.738281 C 27.933594 14.726562 27.78125 14.71875 27.425781 14.71875 C 27.066406 14.71875 26.929688 14.726562 27.113281 14.738281 M 28.511719 15.085938 C 28.589844 15.097656 28.703125 15.097656 28.761719 15.085938 C 28.824219 15.074219 28.761719 15.0625 28.625 15.0625 C 28.488281 15.066406 28.4375 15.074219 28.511719 15.085938 M 31.761719 21.050781 C 31.761719 21.144531 31.773438 21.1875 31.785156 21.136719 C 31.796875 21.089844 31.796875 21.011719 31.785156 20.960938 C 31.773438 20.914062 31.761719 20.953125 31.761719 21.050781 M 34.886719 21.988281 C 35.390625 21.996094 36.210938 21.996094 36.710938 21.988281 C 37.214844 21.980469 36.804688 21.972656 35.800781 21.972656 C 34.796875 21.972656 34.386719 21.980469 34.886719 21.988281 M 22.972656 30.636719 C 23.085938 30.648438 23.191406 30.683594 23.214844 30.714844 C 23.246094 30.757812 23.25 30.75 23.238281 30.699219 C 23.222656 30.648438 23.148438 30.625 22.996094 30.621094 C 22.777344 30.613281 22.777344 30.613281 22.972656 30.636719 M 21.5625 30.925781 C 21.5625 31.035156 21.574219 31.074219 21.585938 31.011719 C 21.597656 30.949219 21.597656 30.859375 21.585938 30.8125 C 21.570312 30.765625 21.5625 30.816406 21.5625 30.925781 M 20.210938 33.382812 C 20.261719 33.398438 20.339844 33.398438 20.386719 33.382812 C 20.4375 33.371094 20.394531 33.363281 20.300781 33.363281 C 20.203125 33.363281 20.164062 33.371094 20.210938 33.382812 M 29.542969 35.414062 C 29.5625 35.433594 30.480469 35.445312 31.578125 35.4375 L 33.574219 35.425781 L 31.539062 35.398438 C 30.421875 35.386719 29.523438 35.390625 29.542969 35.414062 M 25.375 35.75 C 25.480469 35.859375 25.582031 35.949219 25.59375 35.949219 C 25.609375 35.949219 25.53125 35.859375 25.425781 35.75 C 25.316406 35.640625 25.21875 35.550781 25.203125 35.550781 C 25.191406 35.550781 25.265625 35.640625 25.375 35.75 M 30.511719 37.9375 C 30.589844 37.949219 30.703125 37.945312 30.761719 37.933594 C 30.824219 37.921875 30.761719 37.914062 30.625 37.914062 C 30.488281 37.914062 30.4375 37.925781 30.511719 37.9375 M 31.289062 41.386719 C 31.347656 41.398438 31.449219 41.398438 31.511719 41.386719 C 31.574219 41.375 31.523438 41.363281 31.398438 41.363281 C 31.277344 41.363281 31.226562 41.375 31.289062 41.386719 M 13.539062 43.1875 C 13.65625 43.199219 13.835938 43.195312 13.9375 43.1875 C 14.042969 43.175781 13.945312 43.167969 13.726562 43.167969 C 13.503906 43.167969 13.421875 43.175781 13.539062 43.1875 M 16.734375 43.1875 C 16.824219 43.195312 16.984375 43.199219 17.085938 43.1875 C 17.191406 43.175781 17.117188 43.167969 16.925781 43.167969 C 16.734375 43.167969 16.648438 43.175781 16.734375 43.1875 M 20.4375 43.1875 C 20.527344 43.199219 20.671875 43.199219 20.761719 43.1875 C 20.851562 43.175781 20.777344 43.167969 20.601562 43.167969 C 20.421875 43.167969 20.347656 43.175781 20.4375 43.1875 M 20.222656 45.625 C 20.222656 46.972656 20.230469 47.515625 20.238281 46.835938 C 20.246094 46.152344 20.246094 45.050781 20.238281 44.382812 C 20.230469 43.71875 20.222656 44.277344 20.222656 45.625 M 35.664062 44.523438 C 35.664062 44.636719 35.671875 44.675781 35.683594 44.613281 C 35.699219 44.550781 35.695312 44.460938 35.683594 44.410156 C 35.671875 44.363281 35.660156 44.414062 35.664062 44.523438 M 38.0625 44.523438 C 38.0625 44.636719 38.074219 44.675781 38.085938 44.613281 C 38.097656 44.550781 38.097656 44.460938 38.085938 44.410156 C 38.070312 44.363281 38.0625 44.414062 38.0625 44.523438 M 35.671875 45.648438 C 35.671875 46.105469 35.679688 46.289062 35.6875 46.0625 C 35.695312 45.835938 35.695312 45.464844 35.6875 45.238281 C 35.679688 45.011719 35.671875 45.195312 35.671875 45.648438 M 38.074219 46.425781 C 38.074219 47.304688 38.078125 47.65625 38.085938 47.210938 C 38.09375 46.761719 38.09375 46.039062 38.085938 45.609375 C 38.078125 45.179688 38.074219 45.546875 38.074219 46.425781 M 23.21875 47.675781 C 23.21875 47.894531 23.226562 47.980469 23.238281 47.859375 C 23.246094 47.742188 23.246094 47.5625 23.234375 47.460938 C 23.226562 47.359375 23.21875 47.453125 23.21875 47.675781 M 19.566406 47.800781 C 19.566406 47.953125 19.574219 48.011719 19.585938 47.9375 C 19.597656 47.863281 19.597656 47.738281 19.585938 47.664062 C 19.574219 47.585938 19.566406 47.648438 19.566406 47.800781 "/>
</g>
</svg>
